<svg xmlns="http://www.w3.org/2000/svg" viewBox="0 0 900 1100" role="img" aria-label="Demo fashion product image">
  <defs>
    <linearGradient id="bg" x1="0" x2="1" y1="0" y2="1">
      <stop offset="0%" stop-color="#111827"/>
      <stop offset="100%" stop-color="#db2777"/>
    </linearGradient>
  </defs>
  <rect width="900" height="1100" fill="#f5f5f5"/>
  <rect x="80" y="80" width="740" height="940" rx="48" fill="url(#bg)"/>
  <circle cx="450" cy="295" r="88" fill="#f8d7c6"/>
  <path d="M260 430c0-75 60-135 135-135h110c75 0 135 60 135 135v260c0 34-28 62-62 62H322c-34 0-62-28-62-62V430z" fill="#111111"/>
  <path d="M320 355l130 95 130-95 55 72-106 83 44 262H327l44-262-106-83 55-72z" fill="#1f2937"/>
  <rect x="214" y="770" width="472" height="88" rx="20" fill="#ffffff" fill-opacity="0.14"/>
  <text x="450" y="825" text-anchor="middle" fill="#ffffff" font-family="Segoe UI, Arial, sans-serif" font-size="46" font-weight="700">FashionStore Demo</text>
  <text x="450" y="890" text-anchor="middle" fill="#fbcfe8" font-family="Segoe UI, Arial, sans-serif" font-size="28">Urban Oversized Tee</text>
</svg>
